<svg version="1.1" id="Layer_1" xmlns="http://www.w3.org/2000/svg" xmlns:xlink="http://www.w3.org/1999/xlink" x="0px" y="0px"
	 width="100%" viewBox="0 0 500 500" enable-background="new 0 0 500 500" xml:space="preserve">
<path fill="#FFFFFF" opacity="1.000000" stroke="none" 
	d="
M296.000000,501.000000 
	C197.333359,501.000000 99.166710,501.000000 1.000053,501.000000 
	C1.000035,334.333405 1.000035,167.666794 1.000018,1.000142 
	C167.666565,1.000095 334.333130,1.000095 500.999756,1.000047 
	C500.999847,167.666519 500.999847,334.333038 500.999939,500.999786 
	C432.833344,501.000000 364.666656,501.000000 296.000000,501.000000 
M396.500000,298.999939 
	C423.608826,298.999939 450.717621,298.999939 477.942139,298.999939 
	C477.942139,266.819000 477.942139,235.095306 477.942139,203.228394 
	C325.530121,203.228394 173.339874,203.228394 21.032717,203.228394 
	C21.032717,235.180389 21.032717,266.903748 21.032717,298.999939 
	C146.002686,298.999939 270.751343,298.999939 396.500000,298.999939 
z"/>
<path fill="#000000" opacity="1.000000" stroke="none" 
	d="
M396.000000,298.999939 
	C270.751343,298.999939 146.002686,298.999939 21.032717,298.999939 
	C21.032717,266.903748 21.032717,235.180389 21.032717,203.228394 
	C173.339874,203.228394 325.530121,203.228394 477.942139,203.228394 
	C477.942139,235.095306 477.942139,266.819000 477.942139,298.999939 
	C450.717621,298.999939 423.608826,298.999939 396.000000,298.999939 
M23.257236,287.430389 
	C23.257236,290.205353 23.257236,292.980316 23.257236,295.718689 
	C174.392426,295.718689 324.927277,295.718689 475.500397,295.718689 
	C475.500397,265.709198 475.500397,235.985931 475.500397,206.284042 
	C324.667664,206.284042 174.135910,206.284042 23.257238,206.284042 
	C23.257238,233.195663 23.257238,259.820831 23.257236,287.430389 
z"/>
<path fill="#FDFDFD" opacity="1.000000" stroke="none" 
	d="
M23.257236,286.938171 
	C23.257238,259.820831 23.257238,233.195663 23.257238,206.284042 
	C174.135910,206.284042 324.667664,206.284042 475.500397,206.284042 
	C475.500397,235.985931 475.500397,265.709198 475.500397,295.718689 
	C324.927277,295.718689 174.392426,295.718689 23.257236,295.718689 
	C23.257236,292.980316 23.257236,290.205353 23.257236,286.938171 
M266.500000,289.998474 
	C290.590881,289.998474 314.681763,289.998474 338.647705,289.998474 
	C338.647705,263.642090 338.647705,237.907974 338.647705,212.306915 
	C236.920837,212.306915 135.513641,212.306915 34.250156,212.306915 
	C34.250156,238.347214 34.250156,264.081116 34.250156,289.998474 
	C111.545029,289.998474 188.522522,289.998474 266.500000,289.998474 
M370.598724,237.850815 
	C363.972473,242.184097 361.740265,249.158096 364.815186,255.920074 
	C367.627930,262.105530 374.913147,265.028351 382.207611,262.897919 
	C388.428192,261.081116 391.705841,255.524216 390.838043,247.858871 
	C387.249603,247.858871 383.618225,247.858871 379.986847,247.858871 
	C378.856232,247.858871 377.725586,247.858871 376.430725,247.858871 
	C376.430725,249.814148 376.430725,251.349396 376.430725,252.895996 
	C378.759857,253.044144 380.788544,253.173172 383.481506,253.344452 
	C380.127258,257.213470 376.887665,257.974213 373.504852,255.226135 
	C370.319061,252.638092 370.144348,249.064819 372.327972,245.815887 
	C374.490723,242.597992 377.571869,242.451721 381.152374,243.943069 
	C383.965118,245.114624 387.104889,245.500870 390.739258,246.393051 
	C387.716858,237.372208 381.022339,234.677338 370.598724,237.850815 
M441.939240,252.474075 
	C441.939240,247.365707 441.939240,242.257339 441.939240,237.109985 
	C439.202881,237.109985 436.960632,237.109985 434.220062,237.109985 
	C434.220062,241.060303 434.220062,244.760239 434.220062,248.676620 
	C428.248505,245.273224 428.191559,234.802322 418.488525,237.140305 
	C418.488525,245.772202 418.488525,254.304855 418.488525,262.722626 
	C421.084442,262.722626 423.335419,262.722626 425.968872,262.722626 
	C425.968872,258.724060 425.968872,255.007233 425.968872,250.062103 
	C428.748260,253.749008 431.056671,256.299438 432.763855,259.203339 
	C434.969543,262.955292 437.811584,263.905273 441.939240,262.468414 
	C441.939240,259.407684 441.939240,256.433319 441.939240,252.474075 
M403.503998,236.861160 
	C400.900269,236.861160 398.296539,236.861160 395.775085,236.861160 
	C395.775085,245.869888 395.775085,254.267761 395.775085,262.732239 
	C401.917938,262.732239 407.815796,262.732239 413.708618,262.732239 
	C413.708618,260.716644 413.708618,258.973328 413.708618,257.259949 
	C403.246521,256.183258 403.246521,256.183258 403.559540,252.656769 
	C406.405609,252.656769 409.298370,252.656769 412.503937,252.656769 
	C412.398163,250.434204 412.316284,248.713791 412.237366,247.054962 
	C403.331146,246.453156 403.331146,246.453156 403.494293,242.808380 
	C406.726715,242.808380 409.983032,242.808380 413.192169,242.808380 
	C413.192169,240.648010 413.192169,238.909775 413.192169,236.861160 
	C410.101227,236.861160 407.299774,236.861160 403.503998,236.861160 
z"/>
<path fill="#010101" opacity="1.000000" stroke="none" 
	d="
M266.000000,289.998474 
	C188.522522,289.998474 111.545029,289.998474 34.250156,289.998474 
	C34.250156,264.081116 34.250156,238.347214 34.250156,212.306915 
	C135.513641,212.306915 236.920837,212.306915 338.647705,212.306915 
	C338.647705,237.907974 338.647705,263.642090 338.647705,289.998474 
	C314.681763,289.998474 290.590881,289.998474 266.000000,289.998474 
M280.974121,248.373108 
	C280.163422,249.519196 279.352753,250.665268 278.653442,251.653900 
	C273.395966,247.375122 272.636810,239.310516 265.167053,236.227554 
	C265.167053,245.826553 265.167053,254.290039 265.167053,263.355743 
	C270.627075,261.862549 267.815521,257.701904 268.222351,255.049805 
	C268.725006,251.772766 268.342560,248.359955 268.342560,245.005814 
	C271.460236,247.790421 273.511108,250.738785 275.448761,253.759796 
	C277.470825,256.912476 279.288116,257.040314 281.345184,253.751801 
	C283.258728,250.692856 285.386658,247.768051 287.420166,244.784180 
	C288.297882,250.291489 288.178589,255.289413 288.393524,260.272949 
	C288.439301,261.333954 289.701752,262.342529 290.403717,263.375244 
	C290.830231,263.111664 291.256775,262.848053 291.683289,262.584473 
	C291.683289,254.134018 291.683289,245.683548 291.683289,235.864517 
	C289.667572,237.260330 288.078613,237.901901 287.181915,239.073364 
	C285.065033,241.838806 283.277679,244.856522 280.974121,248.373108 
M133.272385,250.594360 
	C133.272385,248.591156 133.272385,246.587952 133.272385,244.584747 
	C138.401886,249.776505 142.122040,255.206818 146.062515,260.472260 
	C147.026306,261.760132 148.711594,262.508087 150.803192,264.047424 
	C150.803192,254.133255 150.803192,245.674759 150.803192,235.740524 
	C146.171555,238.446625 148.075989,242.191040 147.809189,244.904968 
	C147.471619,248.338806 147.727631,251.830963 147.727631,255.297974 
	C142.604874,250.059296 138.873795,244.613083 134.915466,239.337402 
	C133.961533,238.066025 132.254837,237.359451 130.171799,235.879974 
	C130.171799,245.785278 130.171799,254.242172 130.171799,262.699066 
	C130.549469,262.928101 130.927139,263.157104 131.304794,263.386108 
	C131.960205,262.438843 133.096481,261.532257 133.180740,260.536682 
	C133.432419,257.562561 133.271881,254.553574 133.272385,250.594360 
M161.157379,252.473724 
	C161.157379,255.903259 161.157379,259.332794 161.157379,262.690002 
	C173.722290,263.874878 179.069229,262.248322 182.168396,256.533478 
	C184.816422,251.650528 184.455841,245.637192 181.072433,241.564880 
	C175.614105,234.995193 168.334412,237.063995 161.157394,236.970459 
	C161.157394,242.221237 161.157394,246.851959 161.157379,252.473724 
M219.946854,253.684433 
	C216.595062,248.935532 213.330154,244.121216 209.835907,239.479553 
	C208.849899,238.169785 207.192383,237.365555 204.837769,235.557800 
	C204.837769,244.687195 204.770554,252.154022 204.908813,259.617035 
	C204.930038,260.762573 205.898270,261.890594 206.428513,263.026703 
	C206.980225,261.915619 207.971329,260.819031 208.008469,259.691040 
	C208.179214,254.502869 208.083679,249.305954 208.083679,243.555969 
	C214.814728,249.895294 217.227890,258.905518 225.779907,264.284973 
	C225.779907,254.939453 225.842453,247.298889 225.699936,239.662125 
	C225.682327,238.718201 224.572662,237.794647 223.969040,236.861649 
	C223.411758,237.845856 222.410492,238.813507 222.373108,239.817078 
	C222.199875,244.466812 222.318176,249.127075 222.210449,253.780762 
	C222.205841,253.979568 220.997208,254.150482 219.946854,253.684433 
M75.173767,263.001282 
	C75.742798,260.111847 76.311821,257.222382 76.911682,254.176376 
	C81.499763,251.963303 83.356987,255.466492 85.591988,258.637817 
	C87.042198,260.695557 87.806992,264.436066 92.062134,262.388214 
	C90.038902,259.335876 88.125862,256.449799 86.110504,253.409332 
	C90.537209,251.548203 92.669258,248.308319 91.940910,243.586105 
	C91.371826,239.896545 89.016891,237.468124 85.386230,237.109970 
	C81.362434,236.713058 77.269295,237.019211 73.005951,237.019211 
	C73.005951,245.279587 72.972183,253.057190 73.061394,260.833405 
	C73.069748,261.562073 73.854362,262.281860 75.173767,263.001282 
M118.269562,252.124786 
	C116.473221,247.678238 114.779770,243.186234 112.842720,238.801849 
	C111.641129,236.082108 109.482048,235.647659 108.225960,238.495224 
	C104.730659,246.419113 101.625519,254.515121 98.366280,262.543152 
	C98.880638,262.894775 99.395004,263.246429 99.909363,263.598083 
	C101.456451,261.600037 103.003540,259.601990 104.869743,257.191833 
	C108.352051,257.191833 112.471016,257.191833 116.250877,257.191833 
	C118.795700,258.721436 117.250450,264.330933 122.563988,262.590332 
	C121.226311,259.245544 119.937103,256.021942 118.269562,252.124786 
M241.073776,243.509567 
	C238.507080,249.855743 235.940399,256.201904 233.373718,262.548096 
	C233.886093,262.898041 234.398453,263.247986 234.910812,263.597931 
	C236.457413,261.598938 238.004013,259.599945 239.867874,257.190887 
	C243.353683,257.190887 247.473007,257.190887 251.248505,257.190887 
	C253.794693,258.724060 252.252319,264.329285 257.611328,262.574615 
	C254.855911,255.874130 252.245972,249.258926 249.395111,242.749237 
	C248.472183,240.641830 246.917450,238.811127 245.651718,236.853851 
	C244.225754,238.835190 242.799774,240.816528 241.073776,243.509567 
M302.021820,240.633286 
	C302.021820,248.054001 302.021820,255.474716 302.021820,263.010681 
	C306.861664,263.010681 311.023743,263.100616 315.176941,262.948181 
	C316.230133,262.909515 317.254974,262.099121 318.292877,261.643372 
	C317.192352,261.081360 316.121033,260.117004 314.985718,260.034668 
	C311.886902,259.809967 308.761108,259.957367 305.697388,259.957367 
	C305.697388,256.682404 305.697388,253.980835 305.697388,250.916199 
	C309.709869,250.916199 313.319183,250.916199 316.946655,250.916199 
	C316.946655,250.052628 317.012451,249.143188 316.937225,249.131378 
	C313.185883,248.541962 309.422485,248.029373 305.564911,247.495209 
	C305.564911,245.096359 305.564911,242.690796 305.564911,240.392670 
	C309.669647,238.862167 314.557495,241.566299 317.827087,237.681152 
	C313.209259,236.866684 308.736603,236.729691 304.287567,236.992416 
	C303.482758,237.039932 302.774780,238.727753 302.021820,240.633286 
z"/>
<path fill="#090909" opacity="1.000000" stroke="none" 
	d="
M370.931519,237.656189 
	C381.022339,234.677338 387.716858,237.372208 390.739258,246.393051 
	C387.104889,245.500870 383.965118,245.114624 381.152374,243.943069 
	C377.571869,242.451721 374.490723,242.597992 372.327972,245.815887 
	C370.144348,249.064819 370.319061,252.638092 373.504852,255.226135 
	C376.887665,257.974213 380.127258,257.213470 383.481506,253.344452 
	C380.788544,253.173172 378.759857,253.044144 376.430725,252.895996 
	C376.430725,251.349396 376.430725,249.814148 376.430725,247.858871 
	C377.725586,247.858871 378.856232,247.858871 379.986847,247.858871 
	C383.618225,247.858871 387.249603,247.858871 390.838043,247.858871 
	C391.705841,255.524216 388.428192,261.081116 382.207611,262.897919 
	C374.913147,265.028351 367.627930,262.105530 364.815186,255.920074 
	C361.740265,249.158096 363.972473,242.184097 370.931519,237.656189 
z"/>
<path fill="#0B0B0B" opacity="1.000000" stroke="none" 
	d="
M441.939240,252.966522 
	C441.939240,256.433319 441.939240,259.407684 441.939240,262.468414 
	C437.811584,263.905273 434.969543,262.955292 432.763855,259.203339 
	C431.056671,256.299438 428.748260,253.749008 425.968872,250.062103 
	C425.968872,255.007233 425.968872,258.724060 425.968872,262.722626 
	C423.335419,262.722626 421.084442,262.722626 418.488525,262.722626 
	C418.488525,254.304855 418.488525,245.772202 418.488525,237.140305 
	C428.191559,234.802322 428.248505,245.273224 434.220062,248.676620 
	C434.220062,244.760239 434.220062,241.060303 434.220062,237.109985 
	C436.960632,237.109985 439.202881,237.109985 441.939240,237.109985 
	C441.939240,242.257339 441.939240,247.365707 441.939240,252.966522 
z"/>
<path fill="#030303" opacity="1.000000" stroke="none" 
	d="
M404.001160,236.861160 
	C407.299774,236.861160 410.101227,236.861160 413.192169,236.861160 
	C413.192169,238.909775 413.192169,240.648010 413.192169,242.808380 
	C409.983032,242.808380 406.726715,242.808380 403.494293,242.808380 
	C403.331146,246.453156 403.331146,246.453156 412.237366,247.054962 
	C412.316284,248.713791 412.398163,250.434204 412.503937,252.656769 
	C409.298370,252.656769 406.405609,252.656769 403.559540,252.656769 
	C403.246521,256.183258 403.246521,256.183258 413.708618,257.259949 
	C413.708618,258.973328 413.708618,260.716644 413.708618,262.732239 
	C407.815796,262.732239 401.917938,262.732239 395.775085,262.732239 
	C395.775085,254.267761 395.775085,245.869888 395.775085,236.861160 
	C398.296539,236.861160 400.900269,236.861160 404.001160,236.861160 
z"/>
<path fill="#E9E9E9" opacity="1.000000" stroke="none" 
	d="
M281.165588,248.072662 
	C283.277679,244.856522 285.065033,241.838806 287.181915,239.073364 
	C288.078613,237.901901 289.667572,237.260330 291.683289,235.864517 
	C291.683289,245.683548 291.683289,254.134018 291.683289,262.584473 
	C291.256775,262.848053 290.830231,263.111664 290.403717,263.375244 
	C289.701752,262.342529 288.439301,261.333954 288.393524,260.272949 
	C288.178589,255.289413 288.297882,250.291489 287.420166,244.784180 
	C285.386658,247.768051 283.258728,250.692856 281.345184,253.751801 
	C279.288116,257.040314 277.470825,256.912476 275.448761,253.759796 
	C273.511108,250.738785 271.460236,247.790421 268.342560,245.005814 
	C268.342560,248.359955 268.725006,251.772766 268.222351,255.049805 
	C267.815521,257.701904 270.627075,261.862549 265.167053,263.355743 
	C265.167053,254.290039 265.167053,245.826553 265.167053,236.227554 
	C272.636810,239.310516 273.395966,247.375122 278.653442,251.653900 
	C279.352753,250.665268 280.163422,249.519196 281.165588,248.072662 
z"/>
<path fill="#F4F4F4" opacity="1.000000" stroke="none" 
	d="
M133.272369,251.076279 
	C133.271881,254.553574 133.432419,257.562561 133.180740,260.536682 
	C133.096481,261.532257 131.960205,262.438843 131.304794,263.386108 
	C130.927139,263.157104 130.549469,262.928101 130.171799,262.699066 
	C130.171799,254.242172 130.171799,245.785278 130.171799,235.879974 
	C132.254837,237.359451 133.961533,238.066025 134.915466,239.337402 
	C138.873795,244.613083 142.604874,250.059296 147.727631,255.297974 
	C147.727631,251.830963 147.471619,248.338806 147.809189,244.904968 
	C148.075989,242.191040 146.171555,238.446625 150.803192,235.740524 
	C150.803192,245.674759 150.803192,254.133255 150.803192,264.047424 
	C148.711594,262.508087 147.026306,261.760132 146.062515,260.472260 
	C142.122040,255.206818 138.401886,249.776505 133.272385,244.584747 
	C133.272385,246.587952 133.272385,248.591156 133.272369,251.076279 
z"/>
<path fill="#E5E5E5" opacity="1.000000" stroke="none" 
	d="
M161.157379,251.978195 
	C161.157394,246.851959 161.157394,242.221237 161.157394,236.970459 
	C168.334412,237.063995 175.614105,234.995193 181.072433,241.564880 
	C184.455841,245.637192 184.816422,251.650528 182.168396,256.533478 
	C179.069229,262.248322 173.722290,263.874878 161.157379,262.690002 
	C161.157379,259.332794 161.157379,255.903259 161.157379,251.978195 
M164.928650,259.125244 
	C170.050980,260.744202 174.923660,260.373535 178.386826,255.954010 
	C181.191010,252.375412 181.191620,247.990509 178.672302,244.244705 
	C175.268585,239.183945 170.047760,239.674866 164.773026,240.377213 
	C164.773026,246.541458 164.773026,252.370483 164.928650,259.125244 
z"/>
<path fill="#E9E9E9" opacity="1.000000" stroke="none" 
	d="
M220.148163,254.009415 
	C220.997208,254.150482 222.205841,253.979568 222.210449,253.780762 
	C222.318176,249.127075 222.199875,244.466812 222.373108,239.817078 
	C222.410492,238.813507 223.411758,237.845856 223.969040,236.861649 
	C224.572662,237.794647 225.682327,238.718201 225.699936,239.662125 
	C225.842453,247.298889 225.779907,254.939453 225.779907,264.284973 
	C217.227890,258.905518 214.814728,249.895294 208.083679,243.555969 
	C208.083679,249.305954 208.179214,254.502869 208.008469,259.691040 
	C207.971329,260.819031 206.980225,261.915619 206.428528,263.026703 
	C205.898270,261.890594 204.930038,260.762573 204.908813,259.617035 
	C204.770554,252.154022 204.837769,244.687195 204.837769,235.557800 
	C207.192383,237.365555 208.849899,238.169785 209.835907,239.479553 
	C213.330154,244.121216 216.595062,248.935532 220.148163,254.009415 
z"/>
<path fill="#F0F0F0" opacity="1.000000" stroke="none" 
	d="
M74.726166,263.003540 
	C73.854362,262.281860 73.069748,261.562073 73.061394,260.833405 
	C72.972183,253.057190 73.005951,245.279587 73.005951,237.019211 
	C77.269295,237.019211 81.362434,236.713058 85.386230,237.109970 
	C89.016891,237.468124 91.371826,239.896545 91.940910,243.586105 
	C92.669258,248.308319 90.537209,251.548203 86.110504,253.409332 
	C88.125862,256.449799 90.038902,259.335876 92.062134,262.388214 
	C87.806992,264.436066 87.042198,260.695557 85.591988,258.637817 
	C83.356987,255.466492 81.499763,251.963303 76.911682,254.176376 
	C76.311821,257.222382 75.742798,260.111847 74.726166,263.003540 
M84.716171,240.194092 
	C81.981682,240.194092 79.247200,240.194092 76.550781,240.194092 
	C76.550781,243.781204 76.550781,246.869232 76.550781,250.341492 
	C80.743111,249.935120 85.338455,252.096893 88.007652,247.475296 
	C89.659088,244.615891 88.479576,242.034073 84.716171,240.194092 
z"/>
<path fill="#F0F0F0" opacity="1.000000" stroke="none" 
	d="
M118.458725,252.461578 
	C119.937103,256.021942 121.226311,259.245544 122.563988,262.590332 
	C117.250450,264.330933 118.795700,258.721436 116.250877,257.191833 
	C112.471016,257.191833 108.352051,257.191833 104.869743,257.191833 
	C103.003540,259.601990 101.456451,261.600037 99.909363,263.598083 
	C99.395004,263.246429 98.880638,262.894775 98.366280,262.543152 
	C101.625519,254.515121 104.730659,246.419113 108.225960,238.495224 
	C109.482048,235.647659 111.641129,236.082108 112.842720,238.801849 
	C114.779770,243.186234 116.473221,247.678238 118.458725,252.461578 
M110.535347,242.276108 
	C108.856995,245.953094 107.178635,249.630081 105.326897,253.686920 
	C109.015587,253.686920 111.974075,253.686920 115.425026,253.686920 
	C113.822525,249.789444 112.397278,246.323090 110.535347,242.276108 
z"/>
<path fill="#F0F0F0" opacity="1.000000" stroke="none" 
	d="
M241.223785,243.153717 
	C242.799774,240.816528 244.225754,238.835190 245.651718,236.853851 
	C246.917450,238.811127 248.472183,240.641830 249.395111,242.749237 
	C252.245972,249.258926 254.855911,255.874130 257.611328,262.574615 
	C252.252319,264.329285 253.794693,258.724060 251.248505,257.190887 
	C247.473007,257.190887 243.353683,257.190887 239.867874,257.190887 
	C238.004013,259.599945 236.457413,261.598938 234.910812,263.597931 
	C234.398453,263.247986 233.886093,262.898041 233.373718,262.548096 
	C235.940399,256.201904 238.507080,249.855743 241.223785,243.153717 
M245.016663,242.784805 
	C243.530273,246.371674 242.043869,249.958542 240.446228,253.813873 
	C244.033417,253.813873 246.950211,253.813873 250.531464,253.813873 
	C248.757416,249.718597 247.145050,245.996552 245.016663,242.784805 
z"/>
<path fill="#F8F8F8" opacity="1.000000" stroke="none" 
	d="
M302.021973,240.145782 
	C302.774780,238.727753 303.482758,237.039932 304.287567,236.992416 
	C308.736603,236.729691 313.209259,236.866684 317.827087,237.681152 
	C314.557495,241.566299 309.669647,238.862167 305.564911,240.392670 
	C305.564911,242.690796 305.564911,245.096359 305.564911,247.495209 
	C309.422485,248.029373 313.185883,248.541962 316.937225,249.131378 
	C317.012451,249.143188 316.946655,250.052628 316.946655,250.916199 
	C313.319183,250.916199 309.709869,250.916199 305.697388,250.916199 
	C305.697388,253.980835 305.697388,256.682404 305.697388,259.957367 
	C308.761108,259.957367 311.886902,259.809967 314.985718,260.034668 
	C316.121033,260.117004 317.192352,261.081360 318.292877,261.643372 
	C317.254974,262.099121 316.230133,262.909515 315.176941,262.948181 
	C311.023743,263.100616 306.861664,263.010681 302.021820,263.010681 
	C302.021820,255.474716 302.021820,248.054001 302.021973,240.145782 
z"/>
<path fill="#030303" opacity="1.000000" stroke="none" 
	d="
M164.850830,258.662384 
	C164.773026,252.370483 164.773026,246.541458 164.773026,240.377213 
	C170.047760,239.674866 175.268585,239.183945 178.672302,244.244705 
	C181.191620,247.990509 181.191010,252.375412 178.386826,255.954010 
	C174.923660,260.373535 170.050980,260.744202 164.850830,258.662384 
z"/>
<path fill="#0B0B0B" opacity="1.000000" stroke="none" 
	d="
M85.104706,240.326599 
	C88.479576,242.034073 89.659088,244.615891 88.007652,247.475296 
	C85.338455,252.096893 80.743111,249.935120 76.550781,250.341492 
	C76.550781,246.869232 76.550781,243.781204 76.550781,240.194092 
	C79.247200,240.194092 81.981682,240.194092 85.104706,240.326599 
z"/>
<path fill="#0B0B0B" opacity="1.000000" stroke="none" 
	d="
M110.753693,242.566422 
	C112.397278,246.323090 113.822525,249.789444 115.425026,253.686920 
	C111.974075,253.686920 109.015587,253.686920 105.326897,253.686920 
	C107.178635,249.630081 108.856995,245.953094 110.753693,242.566422 
z"/>
<path fill="#0B0B0B" opacity="1.000000" stroke="none" 
	d="
M245.274673,242.529648 
	C247.145050,245.996552 248.757416,249.718597 250.531464,253.813873 
	C246.950211,253.813873 244.033417,253.813873 240.446228,253.813873 
	C242.043869,249.958542 243.530273,246.371674 245.274673,242.529648 
z"/>
</svg>